<?xml version="1.0" ?><svg id="Layer_1" style="enable-background:new 0 0 48 48;" version="1.1" viewBox="0 0 48 48" xml:space="preserve" xmlns="http://www.w3.org/2000/svg" xmlns:xlink="http://www.w3.org/1999/xlink"><g><path d="M19,38c-2.2,0-4,1.8-4,4s1.8,4,4,4c2.2,0,4-1.8,4-4S21.2,38,19,38z M19,44c-1.1,0-2-0.9-2-2s0.9-2,2-2s2,0.9,2,2   S20.1,44,19,44z"/><path d="M37,38c-2.2,0-4,1.8-4,4s1.8,4,4,4s4-1.8,4-4S39.2,38,37,38z M37,44c-1.1,0-2-0.9-2-2s0.9-2,2-2s2,0.9,2,2S38.1,44,37,44z"/><path d="M43.6,9.4C42.9,8.5,41.7,8,40.5,8H12.8l-0.4-2.6c-0.3-1.9-2-3.4-4-3.4H2v2h6.4c1,0,1.9,0.7,2,1.7l4.2,27.1   c0.4,1.9,2.1,3.3,4,3.3H40v-2H18.6c-1,0-1.8-0.7-2-1.7L16.2,30h22.2c1.9,0,3.6-1.4,4-3.5l2.1-14C44.7,11.4,44.4,10.3,43.6,9.4z    M42.5,12.3l-2.1,14c-0.2,1.1-1,1.8-2,1.8H15.9l-2.8-18h27.4c0.6,0,1.2,0.3,1.6,0.7C42.5,11.1,42.6,11.7,42.5,12.3z"/></g></svg>