<?xml version="1.0" standalone="no"?>
<!DOCTYPE svg PUBLIC "-//W3C//DTD SVG 20010904//EN"
 "http://www.w3.org/TR/2001/REC-SVG-20010904/DTD/svg10.dtd">
<svg version="1.0" xmlns="http://www.w3.org/2000/svg"
 width="224.000000pt" height="106.000000pt" viewBox="0 0 224.000000 106.000000"
 preserveAspectRatio="xMidYMid meet">

<g transform="translate(0.000000,106.000000) scale(0.100000,-0.100000)"
fill="#000000" stroke="none">
<path d="M459 767 c-47 -31 -66 -68 -54 -103 16 -44 32 -39 37 11 3 25 14 55
23 65 18 20 65 28 65 11 0 -6 -43 -105 -95 -220 -97 -216 -115 -272 -70 -216
13 16 56 106 96 200 39 93 74 172 76 175 3 3 2 -67 -1 -155 -6 -134 -5 -163 8
-180 19 -25 25 -18 61 70 40 99 105 228 112 222 3 -3 -4 -45 -15 -94 -39 -171
-38 -263 5 -263 15 0 17 7 15 48 -4 57 32 280 59 366 23 75 23 76 0 76 -13 0
-33 -22 -61 -65 -37 -60 -120 -219 -132 -255 -3 -8 -5 53 -4 136 1 136 -1 154
-18 173 -25 27 -65 27 -107 -2z"/>
<path d="M1178 687 c-9 -12 -29 -50 -47 -85 -17 -34 -35 -62 -40 -62 -5 0 -7
-9 -4 -19 8 -31 -16 -90 -54 -132 -58 -64 -87 -48 -53 28 16 36 18 48 8 55 -9
5 -21 -3 -38 -24 -51 -68 -100 -112 -112 -100 -27 27 28 139 87 178 20 13 28
14 40 4 8 -7 15 -21 15 -31 0 -21 15 -25 25 -8 14 22 -5 57 -34 64 -97 21
-240 -165 -175 -229 23 -24 49 -19 89 15 25 22 35 27 35 15 0 -21 35 -38 64
-30 14 3 36 16 50 29 l25 23 10 -28 c12 -35 41 -45 86 -30 31 10 60 37 107
102 16 22 17 20 2 -32 -8 -30 -24 -62 -35 -70 -86 -64 -115 -102 -103 -135 4
-8 18 -15 33 -15 34 0 73 39 100 100 20 46 101 114 101 86 0 -18 33 -46 53
-46 9 0 32 14 52 31 26 23 35 27 35 15 0 -27 44 -41 80 -26 38 16 71 57 106
133 40 88 74 53 39 -40 -10 -25 -14 -55 -11 -68 5 -21 12 -25 45 -25 44 0 92
33 117 81 20 39 10 37 -28 -6 -68 -78 -101 -69 -74 19 19 59 15 76 -23 110
-12 11 -21 30 -21 43 0 12 -4 23 -10 23 -14 0 -31 -36 -25 -52 8 -20 -61 -154
-92 -178 -52 -40 -69 -14 -36 55 15 31 15 37 3 45 -11 7 -20 2 -35 -18 -41
-57 -102 -115 -113 -108 -38 23 44 179 98 186 32 5 40 -1 40 -26 0 -34 24 -27
28 9 6 51 -67 61 -130 16 -16 -12 -46 -47 -65 -78 -33 -52 -78 -100 -95 -101
-4 0 0 22 8 49 33 111 35 175 5 157 -6 -4 -26 -39 -44 -79 -37 -80 -95 -140
-130 -135 -20 3 -22 9 -21 63 0 33 6 72 12 88 10 23 17 27 54 28 71 1 93 17
25 18 l-59 1 41 75 c23 41 41 79 41 85 0 19 -38 10 -52 -13z m42 -414 c0 -11
-51 -73 -61 -73 -17 0 -9 24 18 52 26 27 43 35 43 21z"/>
<path d="M1316 654 c-21 -21 -20 -31 5 -39 26 -8 54 16 46 39 -8 20 -31 20
-51 0z"/>
</g>
</svg>
